<svg width="436" height="437" viewBox="0 0 436 437" fill="none" xmlns="http://www.w3.org/2000/svg">
<path fill-rule="evenodd" clip-rule="evenodd" d="M191.651 148.306C177.868 154.6 165.849 160.082 164.943 160.489C161.853 161.877 160.98 165.207 163.098 167.529C165.308 169.95 164.366 170.275 192.597 157.343C213.831 147.615 217.454 146.048 218.131 146.301C221.118 147.418 281.147 175.034 280.951 175.202C280.021 175.996 217.694 203.112 217.1 202.981C216.713 202.896 200.225 195.676 180.46 186.937C140.843 169.421 143.431 170.455 141.432 171.343C138.795 172.515 139.007 168.454 139.008 217.692C139.01 267.816 138.678 262.735 142.055 264.344C157.713 271.808 216.911 299 217.501 299C218.091 299 276.867 272 292.946 264.343C296.323 262.735 295.991 267.825 295.991 217.629C295.991 168.354 296.198 172.49 293.674 171.287C283.283 166.334 218.615 137.11 217.815 137.006C216.881 136.884 212.879 138.612 191.651 148.306ZM182.194 197.078C223.294 215.25 211.706 215.25 252.806 197.078C271.444 188.837 286.871 182.025 287.088 181.939C287.402 181.815 287.482 189.477 287.482 219.613V257.443L273.06 264.146C265.128 267.833 250.411 274.663 240.355 279.324L222.071 287.798L221.913 258.017C221.763 229.553 221.73 228.192 221.161 227.25C219.516 224.519 215.485 224.519 213.839 227.25C213.271 228.192 213.238 229.553 213.087 258.017L212.929 287.798L194.646 279.324C184.59 274.663 169.873 267.833 161.94 264.146L147.518 257.443V219.613C147.518 189.477 147.599 181.815 147.912 181.939C148.129 182.025 163.556 188.837 182.194 197.078Z" fill="white"/>
<path fill-rule="evenodd" clip-rule="evenodd" d="M354.66 47.6735C317.31 17.8374 269.955 0 218.433 0C97.7959 0 0 97.7959 0 218.433C0 339.071 97.7959 436.866 218.433 436.866C332.364 436.866 425.922 349.642 435.973 238.329C436.003 237.991 436.004 237.646 435.975 237.308C434.064 214.997 427.087 199.536 412.273 196.647C412.176 196.629 412.119 196.525 412.158 196.434C412.196 196.344 412.144 196.243 412.049 196.222C382.26 189.858 340.367 204.861 295.408 220.962C226.614 245.598 150.642 272.806 99.8642 229.97C97.0562 227.362 94.7823 224.61 93.2037 221.718C86.6799 209.765 89.9401 193.8 125.584 181.309C128.045 180.446 129.746 178.145 129.746 175.537V169.357C129.746 166.991 131.137 164.846 133.298 163.88L216.417 126.725C217.963 126.034 219.728 126.028 221.277 126.708L282.884 153.748C284.104 154.284 285.498 154.393 286.788 154.058C371.402 132.134 392.828 86.3946 354.66 47.6735ZM309.367 239.261C315.13 238.353 317.313 245.307 312.264 248.228C310.508 249.244 309.584 251.019 309.584 253.048V266.739C309.584 269.079 308.223 271.206 306.098 272.187L221.381 311.287C219.773 312.029 217.918 312.023 216.315 311.269L131.041 271.187C130.251 270.815 129.746 270.02 129.746 269.147C129.746 267.817 130.886 266.778 132.212 266.88C167.319 269.597 212.21 259.671 254.018 250.426C273.582 246.1 292.472 241.923 309.367 239.261ZM197.764 22.1718L198.314 26.1958C198.739 29.3097 201.188 31.7583 204.302 32.1837L208.326 32.7335L204.302 33.2833C201.188 33.7088 198.739 36.1574 198.314 39.2713L197.764 43.2953L197.214 39.2713C196.789 36.1574 194.34 33.7088 191.226 33.2833L187.202 32.7335L191.226 32.1837C194.34 31.7583 196.789 29.3097 197.214 26.1958L197.764 22.1718ZM269.259 57.513C269.259 59.9808 267.258 61.9814 264.791 61.9814C262.323 61.9814 260.322 59.9808 260.322 57.513C260.322 55.0451 262.323 53.0445 264.791 53.0445C267.258 53.0445 269.259 55.0451 269.259 57.513ZM162.017 80.6676C162.017 83.3598 159.834 85.5422 157.142 85.5422C154.45 85.5422 152.267 83.3598 152.267 80.6676C152.267 77.9754 154.45 75.7929 157.142 75.7929C159.834 75.7929 162.017 77.9754 162.017 80.6676ZM64.9298 118.04C66.9489 118.04 68.5857 116.403 68.5857 114.384C68.5857 112.365 66.9489 110.728 64.9298 110.728C62.9106 110.728 61.2738 112.365 61.2738 114.384C61.2738 116.403 62.9106 118.04 64.9298 118.04ZM75.8978 266.311C75.8978 268.33 74.2609 269.967 72.2418 269.967C70.2226 269.967 68.5858 268.33 68.5858 266.311C68.5858 264.291 70.2226 262.655 72.2418 262.655C74.2609 262.655 75.8978 264.291 75.8978 266.311ZM274.981 332.11C274.981 335.026 272.617 337.39 269.7 337.39C266.784 337.39 264.419 335.026 264.419 332.11C264.419 329.193 266.784 326.829 269.7 326.829C272.617 326.829 274.981 329.193 274.981 332.11ZM306.203 375.641C306.203 378.109 304.203 380.109 301.735 380.109C299.267 380.109 297.266 378.109 297.266 375.641C297.266 373.173 299.267 371.172 301.735 371.172C304.203 371.172 306.203 373.173 306.203 375.641ZM190.063 340.71C192.082 340.71 193.719 339.073 193.719 337.054C193.719 335.035 192.082 333.398 190.063 333.398C188.044 333.398 186.407 335.035 186.407 337.054C186.407 339.073 188.044 340.71 190.063 340.71ZM215 94C219.418 94 223 90.4183 223 86C223 81.5817 219.418 78 215 78C210.582 78 207 81.5817 207 86C207 90.4183 210.582 94 215 94ZM310.287 131.039C312.755 131.039 314.756 129.038 314.756 126.57C314.756 124.103 312.755 122.102 310.287 122.102C307.819 122.102 305.819 124.103 305.819 126.57C305.819 129.038 307.819 131.039 310.287 131.039ZM278.583 107.602L277.79 101.791L276.996 107.602C276.57 110.716 274.121 113.165 271.008 113.59L265.197 114.384L271.008 115.178C274.121 115.603 276.57 118.052 276.996 121.166L277.79 126.977L278.583 121.166C279.009 118.052 281.458 115.603 284.571 115.178L290.382 114.384L284.571 113.59C281.458 113.165 279.009 110.716 278.583 107.602ZM327.348 57.9191L327.849 61.5857C328.275 64.6996 330.723 67.1482 333.837 67.5736L337.504 68.0746L333.837 68.5756C330.723 69.001 328.275 71.4496 327.849 74.5635L327.348 78.2301L326.847 74.5635C326.422 71.4496 323.973 69.001 320.859 68.5756L317.193 68.0746L320.859 67.5736C323.973 67.1482 326.422 64.6996 326.847 61.5857L327.348 57.9191ZM119.052 137.955L118.551 134.289L118.05 137.955C117.625 141.069 115.176 143.518 112.062 143.943L108.395 144.444L112.062 144.945C115.176 145.371 117.625 147.819 118.05 150.933L118.551 154.6L119.052 150.933C119.477 147.819 121.926 145.371 125.04 144.945L128.706 144.444L125.04 143.943C121.926 143.518 119.477 141.069 119.052 137.955ZM38.9317 193.597L39.042 194.405C39.4675 197.518 41.9161 199.967 45.0299 200.392L45.8374 200.503L45.0299 200.613C41.9161 201.039 39.4675 203.487 39.042 206.601L38.9317 207.409L38.8214 206.601C38.3959 203.487 35.9473 201.039 32.8334 200.613L32.0259 200.503L32.8334 200.392C35.9473 199.967 38.3959 197.518 38.8214 194.405L38.9317 193.597ZM112.162 302.459L112.051 301.652L111.941 302.459C111.516 305.573 109.067 308.022 105.953 308.447L105.146 308.557L105.953 308.668C109.067 309.093 111.516 311.542 111.941 314.656L112.051 315.463L112.162 314.656C112.587 311.542 115.036 309.093 118.15 308.668L118.957 308.557L118.15 308.447C115.036 308.022 112.587 305.573 112.162 302.459ZM357.046 288.233L358.182 296.546C358.608 299.66 361.056 302.108 364.17 302.534L372.483 303.67L364.17 304.806C361.056 305.231 358.608 307.68 358.182 310.793L357.046 319.106L355.91 310.793C355.485 307.68 353.036 305.231 349.923 304.806L341.61 303.67L349.923 302.534C353.036 302.108 355.485 299.66 355.91 296.546L357.046 288.233Z" fill="url(#paint0_linear_21_2)"/>
<defs>
<linearGradient id="paint0_linear_21_2" x1="223.508" y1="0" x2="223.508" y2="436.866" gradientUnits="userSpaceOnUse">
<stop stop-color="#E92656"/>
<stop offset="1" stop-color="#F5C920"/>
</linearGradient>
</defs>
</svg>
